<?xml version="1.0" encoding="UTF-8" standalone="no"?>
<!-- Created with Inkscape (http://www.inkscape.org/) -->

<svg
   width="334.52173mm"
   height="129.3961mm"
   viewBox="0 0 334.52172 129.3961"
   version="1.1"
   id="svg5"
   inkscape:version="1.1.1 (3bf5ae0d25, 2021-09-20)"
   sodipodi:docname="asset.svg"
   xmlns:inkscape="http://www.inkscape.org/namespaces/inkscape"
   xmlns:sodipodi="http://sodipodi.sourceforge.net/DTD/sodipodi-0.dtd"
   xmlns="http://www.w3.org/2000/svg"
   xmlns:svg="http://www.w3.org/2000/svg">
  <sodipodi:namedview
     id="namedview7"
     pagecolor="#ffffff"
     bordercolor="#666666"
     borderopacity="1.0"
     inkscape:pageshadow="2"
     inkscape:pageopacity="0.0"
     inkscape:pagecheckerboard="0"
     inkscape:document-units="mm"
     showgrid="false"
     inkscape:zoom="0.64"
     inkscape:cx="617.96875"
     inkscape:cy="411.71875"
     inkscape:window-width="1920"
     inkscape:window-height="1051"
     inkscape:window-x="-9"
     inkscape:window-y="-9"
     inkscape:window-maximized="1"
     inkscape:current-layer="layer1" />
  <defs
     id="defs2">
    <inkscape:path-effect
       effect="spiro"
       id="path-effect7643"
       is_visible="true"
       lpeversion="1" />
    <inkscape:path-effect
       effect="spiro"
       id="path-effect7729"
       is_visible="true"
       lpeversion="1" />
  </defs>
  <g
     inkscape:label="Layer 1"
     inkscape:groupmode="layer"
     id="layer1"
     transform="translate(311.87908,261.56857)">
    <g
       aria-label="1997"
       id="text14853"
       style="font-size:174.459px;line-height:1.25;font-family:'Felix Titling';-inkscape-font-specification:'Felix Titling, Normal';opacity:0.356;fill:#1a1a1a;stroke-width:4.36146">
      <path
         d="m -311.36797,-247.59823 22.48886,-13.97035 h 1.36296 v 116.19242 q 0,6.81481 1.87407,8.60369 1.95926,1.7037 8.94443,1.7037 v 1.1926 h -35.18143 v -1.1926 q 3.74815,0 6.21851,-0.51111 2.47037,-0.59629 3.57777,-3.15184 1.1926,-2.55556 1.1926,-7.92221 v -93.78875 q 0,-3.66296 -0.68149,-5.87777 -0.59629,-2.21481 -3.32221,-2.21481 -2.3,0 -6.47407,2.12962 z"
         id="path849" />
      <path
         d="m -249.69398,-132.17247 -0.85186,-2.38519 q 20.95553,-5.02591 31.68885,-13.37405 10.73331,-8.34814 18.05923,-21.72219 7.32591,-13.37405 8.34813,-28.96292 l -0.34074,-0.34074 q -5.28147,10.13702 -14.8222,15.24813 -9.45554,5.02591 -19.59256,5.02591 -16.18516,0 -27.3444,-11.67035 -11.15925,-11.67035 -11.15925,-29.0481 0,-17.37776 12.0111,-29.72959 12.09628,-12.43702 29.47403,-12.43702 19.42219,0 33.0518,14.99257 13.71479,14.99257 13.71479,37.48143 0,28.11107 -18.57034,49.74807 -18.57034,21.63701 -53.66658,27.17404 z m 31.26291,-53.83696 q 10.22221,0 17.71849,-7.49629 7.58147,-7.58147 7.58147,-17.29256 0,-15.50368 -11.07405,-30.75181 -11.07406,-15.33331 -25.72589,-15.33331 -10.64813,0 -17.29257,7.66666 -6.64443,7.66665 -6.64443,17.80367 0,15.84442 10.13702,30.66662 10.13702,14.73702 25.29996,14.73702 z"
         id="path851" />
      <path
         d="m -148.1534,-132.17247 -0.85185,-2.38519 q 20.95553,-5.02591 31.68884,-13.37405 10.73332,-8.34814 18.059237,-21.72219 7.325915,-13.37405 8.348136,-28.96292 l -0.340741,-0.34074 q -5.281473,10.13702 -14.822202,15.24813 -9.45554,5.02591 -19.59256,5.02591 -16.18516,0 -27.3444,-11.67035 -11.15925,-11.67035 -11.15925,-29.0481 0,-17.37776 12.0111,-29.72959 12.09627,-12.43702 29.47403,-12.43702 19.42219,0 33.051799,14.99257 13.714794,14.99257 13.714794,37.48143 0,28.11107 -18.570343,49.74807 -18.57034,21.63701 -53.66659,27.17404 z m 31.26292,-53.83696 q 10.22221,0 17.718492,-7.49629 7.58147,-7.58147 7.58147,-17.29256 0,-15.50368 -11.074062,-30.75181 -11.07405,-15.33331 -25.72588,-15.33331 -10.64814,0 -17.29257,7.66666 -6.64443,7.66665 -6.64443,17.80367 0,15.84442 10.13702,30.66662 10.13702,14.73702 25.29996,14.73702 z"
         id="path853" />
      <path
         d="m -66.972037,-237.88713 3.492587,-21.46664 h 86.122094 l -60.140651,127.01093 h -9.114801 L 8.3315545,-248.27971 H -39.798003 q -9.199987,0 -16.611087,1.78889 -7.325915,1.7037 -9.199986,8.77406 z"
         id="path855" />
    </g>
    <path
       d="m -273.21473,-193.49374 -6.34093,-2.7572 v -1.52687 l 6.34093,-2.74457 v 1.79817 l -4.42287,1.6909 4.42287,1.75402 z"
       style="font-weight:bold;font-size:10.5833px;line-height:1.25;font-family:Arial;-inkscape-font-specification:'Arial, Bold';fill:#ffffff;stroke-width:0.323041"
       id="path6872-3" />
    <path
       d="m -271.67524,-201.68962 h 3.41336 q 1.15463,0 1.76032,0.17667 0.81391,0.23975 1.39437,0.85176 0.58046,0.61201 0.88331,1.50163 0.30286,0.88332 0.30286,2.18305 0,1.14199 -0.28392,1.96852 -0.34702,1.0095 -0.99057,1.63414 -0.48582,0.47319 -1.31235,0.73819 -0.61833,0.19559 -1.65306,0.19559 h -3.51432 z m 1.86757,1.56474 v 6.12639 h 1.39437 q 0.78237,0 1.12939,-0.0882 0.45427,-0.11353 0.7508,-0.38487 0.30285,-0.27131 0.49214,-0.88964 0.18928,-0.62462 0.18928,-1.69722 0,-1.07259 -0.18928,-1.64675 -0.18929,-0.57414 -0.52999,-0.89593 -0.3407,-0.32178 -0.86438,-0.43534 -0.39118,-0.0882 -1.53319,-0.0882 z"
       style="font-weight:bold;font-size:10.5833px;line-height:1.25;font-family:Arial;-inkscape-font-specification:'Arial, Bold';fill:#ffffff;stroke-width:0.323041"
       id="path6874-9" />
    <path
       d="m -262.33737,-192.44007 v -9.24955 h 6.85829 v 1.56474 h -4.99071 v 2.05052 h 4.6437 v 1.55843 h -4.6437 v 2.51744 h 5.16738 v 1.55842 z"
       style="font-weight:bold;font-size:10.5833px;line-height:1.25;font-family:Arial;-inkscape-font-specification:'Arial, Bold';fill:#ffffff;stroke-width:0.323041"
       id="path6876-8" />
    <path
       d="m -251.35905,-192.44007 -3.30611,-9.24955 h 2.0253 l 2.34078,6.84568 2.26507,-6.84568 h 1.98114 l -3.31242,9.24955 z"
       style="font-weight:bold;font-size:10.5833px;line-height:1.25;font-family:Arial;-inkscape-font-specification:'Arial, Bold';fill:#ffffff;stroke-width:0.323041"
       id="path6878-1" />
    <path
       d="m -245.10016,-192.44007 v -9.24955 h 6.8583 v 1.56474 h -4.99072 v 2.05052 h 4.6437 v 1.55843 h -4.6437 v 2.51744 h 5.16738 v 1.55842 z"
       style="font-weight:bold;font-size:10.5833px;line-height:1.25;font-family:Arial;-inkscape-font-specification:'Arial, Bold';fill:#ffffff;stroke-width:0.323041"
       id="path6880-5" />
    <path
       d="m -236.43107,-192.44007 v -9.17383 h 1.86757 v 7.61541 h 4.64371 v 1.55842 z"
       style="font-weight:bold;font-size:10.5833px;line-height:1.25;font-family:Arial;-inkscape-font-specification:'Arial, Bold';fill:#ffffff;stroke-width:0.323041"
       id="path6882-8" />
    <path
       d="m -228.96707,-197.00806 q 0,-1.41329 0.42272,-2.37232 0.31548,-0.70666 0.85807,-1.26819 0.54893,-0.56154 1.19879,-0.83283 0.86438,-0.36596 1.99377,-0.36596 2.04423,0 3.26824,1.26819 1.23034,1.26818 1.23034,3.52694 0,2.23984 -1.21771,3.50802 -1.2177,1.26188 -3.25564,1.26188 -2.06316,0 -3.28087,-1.25558 -1.21771,-1.26187 -1.21771,-3.47015 z m 1.92436,-0.0631 q 0,1.57103 0.72557,2.38493 0.72558,0.80761 1.84234,0.80761 1.11677,0 1.82972,-0.80129 0.71927,-0.80761 0.71927,-2.4165 0,-1.58995 -0.70034,-2.37232 -0.69403,-0.78237 -1.84865,-0.78237 -1.15461,0 -1.86126,0.79498 -0.70665,0.78868 -0.70665,2.38496 z"
       style="font-weight:bold;font-size:10.5833px;line-height:1.25;font-family:Arial;-inkscape-font-specification:'Arial, Bold';fill:#ffffff;stroke-width:0.323041"
       id="path6884-7" />
    <path
       d="m -218.53768,-192.44007 v -9.24955 h 2.99696 q 1.70352,0 2.2209,0.1388 0.79498,0.20821 1.33128,0.90856 0.53629,0.69404 0.53629,1.79816 0,0.85177 -0.30916,1.43225 -0.30915,0.58045 -0.78867,0.91485 -0.4732,0.32808 -0.96534,0.43535 -0.66879,0.13249 -1.93697,0.13249 h -1.21771 v 3.48909 z m 1.86758,-7.68481 v 2.62469 h 1.02211 q 1.10415,0 1.47641,-0.14512 0.37225,-0.14511 0.58046,-0.45428 0.21451,-0.30916 0.21451,-0.71926 0,-0.50476 -0.29653,-0.83284 -0.29655,-0.32808 -0.75082,-0.41012 -0.3344,-0.0632 -1.3439,-0.0632 z"
       style="font-weight:bold;font-size:10.5833px;line-height:1.25;font-family:Arial;-inkscape-font-specification:'Arial, Bold';fill:#ffffff;stroke-width:0.323041"
       id="path6886-1" />
    <path
       d="m -209.91907,-192.44007 v -9.24955 h 6.8583 v 1.56474 h -4.99072 v 2.05052 h 4.6437 v 1.55843 h -4.6437 v 2.51744 h 5.16738 v 1.55842 z"
       style="font-weight:bold;font-size:10.5833px;line-height:1.25;font-family:Arial;-inkscape-font-specification:'Arial, Bold';fill:#ffffff;stroke-width:0.323041"
       id="path6888-1" />
    <path
       d="m -201.29415,-192.44007 v -9.24955 h 3.93074 q 1.48269,0 2.15149,0.25238 0.67511,0.24606 1.07892,0.88331 0.4038,0.63724 0.4038,1.45747 0,1.04105 -0.61201,1.72245 -0.61202,0.67511 -1.82974,0.85177 0.60571,0.35332 0.9969,0.77606 0.39748,0.42272 1.06628,1.50162 l 1.12937,1.80449 h -2.23352 l -1.3502,-2.0127 q -0.71927,-1.0789 -0.98426,-1.35651 -0.265,-0.28392 -0.56155,-0.38487 -0.29653,-0.10732 -0.94008,-0.10732 h -0.37857 v 3.86135 z m 1.86757,-5.33774 h 1.38175 q 1.3439,0 1.6783,-0.11352 0.33439,-0.11352 0.52368,-0.39119 0.18928,-0.27761 0.18928,-0.69403 0,-0.46689 -0.25238,-0.75081 -0.24605,-0.29023 -0.70034,-0.36595 -0.22714,-0.0315 -1.36282,-0.0315 h -1.45747 z"
       style="font-weight:bold;font-size:10.5833px;line-height:1.25;font-family:Arial;-inkscape-font-specification:'Arial, Bold';fill:#ffffff;stroke-width:0.323041"
       id="path6890-7" />
    <path
       d="m -191.82618,-192.28233 2.29031,-9.56503 h 1.33127 l -2.31553,9.56503 z"
       style="font-weight:bold;font-size:10.5833px;line-height:1.25;font-family:Arial;-inkscape-font-specification:'Arial, Bold';fill:#ffffff;stroke-width:0.323041"
       id="path6892-2" />
    <path
       d="m -187.61784,-193.48742 v -1.78556 l 4.4292,-1.74138 -4.4292,-1.72248 v -1.77293 l 6.34725,2.74459 v 1.51424 z"
       style="font-weight:bold;font-size:10.5833px;line-height:1.25;font-family:Arial;-inkscape-font-specification:'Arial, Bold';fill:#ffffff;stroke-width:0.323041"
       id="path6894-8" />
    <path
       d="m -140.72331,-217.88371 1.80483,4.81292 h -0.57295 q -2.34912,-2.86487 -5.47184,-4.61238 -3.09401,-1.7762 -6.04479,-1.7762 -2.69291,0 -4.03939,1.54701 -1.34647,1.51832 -1.34647,3.3805 0,3.46642 5.64369,9.02421 l 18.70735,18.47817 q 2.09135,-2.83624 2.89348,-7.24805 0.80219,-4.4118 0.80219,-6.81827 0,-1.77623 -0.83079,-2.23458 -0.80219,-0.48731 -2.6357,-0.57296 l -0.40081,-0.0571 -0.9454,0.0571 v -0.48676 l 8.96689,-0.0571 v 0.54441 q -1.43242,-0.17186 -1.94809,0.77348 -0.48675,0.94544 -0.97399,4.2113 -1.20323,8.59449 -4.09676,12.71987 l 4.32594,4.29726 q 3.12266,3.094 6.33124,3.094 2.32054,0 4.8129,-1.46106 l 0.28663,0.40137 q -3.83886,2.72156 -8.308,2.72156 -4.69832,0 -8.62317,-3.89618 0,-0.11478 -0.31489,-0.40083 l -1.40381,-1.34646 q -5.98747,5.64369 -15.41277,5.64369 -9.08152,0 -13.52198,-4.64098 -4.44048,-4.64106 -4.44048,-10.22751 0,-4.84155 2.97939,-8.39391 3.00808,-3.58109 8.22207,-4.55506 -1.48972,-2.12002 -2.26319,-3.83894 -0.77353,-1.74751 -0.77353,-3.72427 0,-3.12264 2.23461,-5.61502 2.23452,-2.49246 7.0761,-2.49246 2.80755,0 4.9275,0.74487 2.12,0.74486 4.35455,2.00542 z m 5.81561,34.32065 -16.10036,-15.5847 q -0.17185,-0.14304 -2.03403,-2.09128 -1.83345,-1.97676 -2.40645,-2.77888 -8.62311,2.00535 -8.62311,8.62311 0,5.93019 5.55775,11.00096 5.58639,5.07073 12.69125,5.07073 3.75285,0 5.81554,-0.88804 2.06268,-0.9168 4.66971,-3.03675 0.11479,-0.11479 0.2578,-0.20067 0.14302,-0.0858 0.17185,-0.11479 z"
       style="font-size:10.5833px;line-height:1.25;font-family:'Felix Titling';-inkscape-font-specification:'Felix Titling, Normal';fill:#ffffff;stroke-width:1.4668"
       id="path6896-3" />
    <path
       d="m -97.80146,-195.29787 q 0,2.35596 -2.94495,2.35596 h -9.42385 v -1.17798 h 9.42385 q 1.17798,0 1.17798,-1.17798 v -3.53394 q 0,-1.17798 -1.17798,-1.17798 h -9.42385 v -1.17799 h 9.42385 q 2.94495,0 2.94495,2.35597 z"
       id="path1412"
       style="font-size:9.53137px;line-height:1.25;font-family:'The Rave Is In Your Pants';-inkscape-font-specification:'The Rave Is In Your Pants, Normal';fill:#ffffff;stroke-width:0.301563" />
    <path
       d="m -95.88724,-197.06484 q -0.73624,-0.58899 -0.73624,-1.76697 0,-2.35597 2.94495,-2.35597 h 9.42385 v 1.17799 h -9.42385 q -1.17798,0 -1.17798,1.17798 0,1.17798 1.17798,1.17798 h 9.42385 v 1.17798 h -9.42385 q -1.17798,0 -1.17798,1.17798 0,1.17798 1.17798,1.17798 h 9.42385 v 1.17798 h -9.42385 q -2.94495,0 -2.94495,-2.35596 0,-1.17798 0.73624,-1.76697 z"
       id="path1414"
       style="font-size:9.53137px;line-height:1.25;font-family:'The Rave Is In Your Pants';-inkscape-font-specification:'The Rave Is In Your Pants, Normal';fill:#ffffff;stroke-width:0.301563" />
    <path
       d="m -83.0767,-192.94191 v -1.17798 h 4.71192 q 1.17799,0 1.17799,-1.17798 v -3.53394 q 0,-2.35597 2.94494,-2.35597 h 4.71194 v 1.17799 h -4.71194 q -1.17797,0 -1.17797,1.17798 v 3.53394 q 0,2.35596 -2.94496,2.35596 z"
       id="path1416"
       style="font-size:9.53137px;line-height:1.25;font-family:'The Rave Is In Your Pants';-inkscape-font-specification:'The Rave Is In Your Pants, Normal';fill:#ffffff;stroke-width:0.301563" />
    <path
       d="m -66.58497,-201.18778 v 8.24587 h -1.76696 v -8.24587 z"
       id="path1418"
       style="font-size:9.53137px;line-height:1.25;font-family:'The Rave Is In Your Pants';-inkscape-font-specification:'The Rave Is In Your Pants, Normal';fill:#ffffff;stroke-width:0.301563" />
    <path
       d="m -53.03818,-192.94191 h -9.42386 q -2.94494,0 -2.94494,-2.35596 v -3.53394 q 0,-2.35597 2.94494,-2.35597 h 9.42386 v 1.17799 h -9.42386 q -1.17798,0 -1.17798,1.17798 v 3.53394 q 0,1.17798 1.17798,1.17798 h 7.65689 v -2.35596 h -4.71193 v -1.17798 h 6.4789 z"
       id="path1420"
       style="font-size:9.53137px;line-height:1.25;font-family:'The Rave Is In Your Pants';-inkscape-font-specification:'The Rave Is In Your Pants, Normal';fill:#ffffff;stroke-width:0.301563" />
    <path
       d="m -45.38131,-196.47585 -4.47043,-2.70936 q -0.24149,-0.10601 -0.24149,0.3534 v 5.8899 h -1.76697 v -7.65687 q 0,-0.589 0.58898,-0.589 0.21205,0 0.589,0.24149 l 5.30091,3.29246 4.47044,2.70935 q 0.24149,0.10602 0.24149,-0.35339 v -5.88991 h 1.76697 v 7.65688 q 0,0.58899 -0.589,0.58899 -0.21203,0 -0.58899,-0.24148 z"
       id="path1422"
       style="font-size:9.53137px;line-height:1.25;font-family:'The Rave Is In Your Pants';-inkscape-font-specification:'The Rave Is In Your Pants, Normal';fill:#ffffff;stroke-width:0.301563" />
    <path
       d="m -36.98819,-197.06484 q -0.73624,-0.58899 -0.73624,-1.76697 0,-2.35597 2.94495,-2.35597 h 9.42385 v 1.17799 h -9.42385 q -1.17797,0 -1.17797,1.17798 0,1.17798 1.17797,1.17798 h 9.42385 v 1.17798 h -9.42385 q -1.17797,0 -1.17797,1.17798 0,1.17798 1.17797,1.17798 h 9.42385 v 1.17798 h -9.42385 q -2.94495,0 -2.94495,-2.35596 0,-1.17798 0.73624,-1.76697 z"
       id="path1424"
       style="font-size:9.53137px;line-height:1.25;font-family:'The Rave Is In Your Pants';-inkscape-font-specification:'The Rave Is In Your Pants, Normal';fill:#ffffff;stroke-width:0.301563" />
    <path
       d="m -19.91925,-196.47585 h -1.31345 q -1.17798,0 -1.17798,1.17798 v 2.35596 h -1.76696 v -2.35596 q 0,-2.35596 2.94494,-2.35596 h 5.30092 q 1.17798,0 1.17798,-1.17798 0,-1.17798 -1.17798,-1.17798 h -8.24586 v -1.17799 h 8.24586 q 2.94496,0 2.94496,2.35597 0,2.35596 -2.94496,2.35596 h -1.30756 l 4.25252,3.53394 h -2.568 z"
       id="path1426"
       style="font-size:9.53137px;line-height:1.25;font-family:'The Rave Is In Your Pants';-inkscape-font-specification:'The Rave Is In Your Pants, Normal';fill:#ffffff;stroke-width:0.301563" />
    <path
       id="path1307"
       style="fill:none;stroke:#ffffff;stroke-width:0.427362;stroke-linecap:round;stroke-linejoin:bevel"
       d="m -9.89434,-194.07588 a 0.92029398,0.92029398 0 0 1 -0.92029,0.92029 0.92029398,0.92029398 0 0 1 -0.92029,-0.92029 0.92029398,0.92029398 0 0 1 0.92029,-0.9203 0.92029398,0.92029398 0 0 1 0.92029,0.9203 z" />
    <path
       style="fill:#ffffff;stroke:#f9f9f9;stroke-width:0.174618;stroke-linecap:round;stroke-linejoin:bevel"
       d="m -161.54417,-238.35064 h 34.03412"
       id="path7639" />
    <path
       style="fill:#ffffff;stroke:#f9f9f9;stroke-width:0.174618;stroke-linecap:round;stroke-linejoin:bevel"
       d="m -161.54417,-155.39039 h 34.03412"
       id="path7725" />
  </g>
</svg>
